<?xml version="1.0" standalone="no"?>
<!DOCTYPE svg PUBLIC "-//W3C//DTD SVG 20010904//EN"
 "http://www.w3.org/TR/2001/REC-SVG-20010904/DTD/svg10.dtd">
<svg version="1.0" xmlns="http://www.w3.org/2000/svg"
 width="480.000000pt" height="480.000000pt" viewBox="0 0 480.000000 480.000000"
 preserveAspectRatio="xMidYMid meet">
<metadata>
Created by potrace 1.14, written by Peter Selinger 2001-2017
</metadata>
<g transform="translate(0.000000,480.000000) scale(0.100000,-0.100000)"
fill="#000000" stroke="none">
<path d="M901 4753 c-8 -27 -15 -52 -16 -58 -2 -9 -66 -215 -117 -375 -51
-164 -160 -518 -168 -545 -4 -16 -42 -140 -84 -275 -42 -135 -83 -265 -90
-290 -14 -47 -77 -249 -142 -455 -21 -66 -39 -125 -40 -131 -1 -6 -29 -98 -62
-205 -34 -107 -86 -275 -117 -374 -30 -99 -58 -187 -60 -196 -5 -15 20 -36
295 -244 36 -27 70 -54 76 -60 6 -5 22 -17 34 -25 12 -8 28 -20 34 -25 6 -6
67 -53 136 -105 69 -52 127 -97 130 -100 3 -3 30 -23 60 -45 30 -22 60 -44 66
-50 6 -5 23 -19 38 -30 15 -11 63 -47 105 -80 43 -33 129 -98 191 -145 62 -47
118 -90 124 -95 13 -12 194 -150 239 -183 18 -12 39 -28 47 -35 8 -7 71 -55
140 -107 69 -52 127 -97 130 -100 3 -3 50 -39 105 -80 55 -41 102 -77 105 -80
3 -4 41 -33 85 -66 44 -33 120 -90 168 -127 l88 -68 42 33 c23 18 47 36 52 41
38 29 205 157 390 297 120 91 223 170 229 175 6 6 67 53 136 105 69 52 132
100 140 107 8 7 123 94 255 194 132 100 254 193 270 206 17 13 35 27 40 31 6
4 105 80 220 168 116 88 269 205 340 259 72 54 132 101 135 104 3 4 26 22 53
41 26 19 58 44 72 55 l24 20 -100 325 c-147 475 -149 481 -164 530 -7 25 -33
110 -58 190 -25 80 -82 264 -127 410 -45 146 -90 292 -101 325 -11 33 -22 67
-24 75 -6 24 -40 136 -75 245 -17 55 -33 107 -35 115 -4 19 -178 580 -209 675
l-23 70 -1484 3 -1485 2 -13 -47z"/>
</g>
</svg>
